<svg xmlns="http://www.w3.org/2000/svg" width="488" height="24" fill="none"><g clip-path="url(#a)"><path fill="url(#b)" d="M449.305 2.954c-10.584-.554-21.352-1.108-32.119-1.662-3.467-.184-7.117-.184-10.585-.369L383.607.37C379.409.185 375.03.185 370.832 0H321.011c-2.92 0-6.023 0-8.943.185-7.482.184-14.782.184-22.264.369-8.395.184-16.79.184-25.185.37-13.504.368-27.192.738-40.696 1.107l-23.542.554-40.514 1.661c-7.483.37-14.783.554-22.265.923-14.052.923-28.104 1.662-42.157 2.4-7.482.37-14.964.739-22.447 1.293-13.87 1.107-27.922 2.4-41.791 3.692-2.92.184-6.023.554-9.125.738-5.84.554-11.862 1.477-17.885 2.216-.365 0-.73.184-1.095.184-.73 0-1.277.37-1.825.923C.365 17.54 0 18.646 0 19.754c0 1.107.365 2.215 1.277 2.954.73.738 2.008 1.292 2.92 1.292 7.3-.738 14.418-1.662 21.717-2.4l20.258-1.662c7.3-.553 14.6-1.292 22.082-1.846 2.92-.184 5.84-.553 8.942-.738 11.497-.554 22.812-1.293 34.309-1.846l21.352-1.108 8.76-.554c11.315-.554 22.63-.923 33.944-1.477 6.935-.184 13.687-.554 20.622-.738 2.373 0 4.563-.185 6.935-.185 12.227-.37 24.455-.554 36.682-.923l20.439-.554c2.373 0 4.928-.184 7.3-.184 12.593-.185 25.185-.185 37.96-.37 7.847 0 15.694-.184 23.541-.184 13.323 0 26.827 0 40.15.184 2.555 0 5.292.185 7.847.185 7.482.185 14.782.37 22.265.739 5.474.184 11.132.369 16.607.553 4.015.185 7.847.37 11.862.554 11.497.554 23.177 1.293 34.674 2.03l8.76.555c3.102.184 6.387.369 9.49.738.547 0 .912.185 1.46.37 1.277.184 2.372.184 3.467-.554 1.095-.554 1.825-1.662 2.19-2.77.73-2.4-.73-4.984-3.285-5.723-2.19-.554-4.38-.738-6.387-1.107-1.46-.185-2.92-.37-4.38-.37-2.92-.369-5.84-.369-8.577-.738-5.11-.185-10.585-.554-15.878-.923Z"/></g><defs><linearGradient id="b" x1="430.058" x2="0" y1="12" y2="12" gradientUnits="userSpaceOnUse"><stop stop-color="#FFE597"/><stop offset="1" stop-color="#AAFF82"/></linearGradient><clipPath id="a"><path fill="#fff" d="M0 0h488v24H0z"/></clipPath></defs></svg>