<svg xmlns="http://www.w3.org/2000/svg" width="48" height="48" fill="none"><path fill="#fff" fill-rule="evenodd" d="M24.017 4.333C12.947 4.333 4 13.348 4 24.5c0 8.914 5.733 16.46 13.687 19.13.994.2 1.358-.434 1.358-.968 0-.468-.032-2.07-.032-3.74-5.569 1.203-6.728-2.403-6.728-2.403-.895-2.337-2.22-2.938-2.22-2.938-1.823-1.236.132-1.236.132-1.236 2.022.134 3.082 2.07 3.082 2.07 1.79 3.072 4.673 2.204 5.833 1.67.165-1.302.696-2.204 1.26-2.705-4.442-.467-9.114-2.203-9.114-9.949 0-2.203.795-4.006 2.054-5.408-.199-.5-.895-2.571.2-5.342 0 0 1.69-.534 5.5 2.07a19.241 19.241 0 0 1 5.005-.668c1.69 0 3.413.234 5.003.668 3.812-2.604 5.502-2.07 5.502-2.07 1.094 2.77.397 4.841.199 5.342 1.292 1.402 2.054 3.205 2.054 5.408 0 7.746-4.672 9.448-9.146 9.95.729.634 1.358 1.835 1.358 3.739 0 2.704-.032 4.874-.032 5.541 0 .535.364 1.17 1.358.97C38.267 40.957 44 33.412 44 24.498c.033-11.152-8.948-20.165-19.983-20.165Z" clip-rule="evenodd"/></svg>