<svg xmlns="http://www.w3.org/2000/svg" width="106" height="6" fill="none"><g clip-path="url(#a)"><path fill="#fff" d="M97.595.642C95.295.522 92.957.4 90.618.28 89.865.24 89.072.24 88.32.2L83.324.08C82.413.04 81.461.04 80.55 0H69.728c-.634 0-1.308 0-1.943.04-1.625.04-3.21.04-4.836.08-1.823.04-3.647.04-5.47.08-2.934.08-5.907.16-8.84.241l-5.114.12-8.8.361c-1.625.08-3.21.12-4.836.2-3.052.201-6.105.362-9.157.522-1.625.08-3.25.16-4.876.28-3.012.241-6.065.522-9.077.803-.635.04-1.309.12-1.982.16-1.269.12-2.577.321-3.885.481-.08 0-.159.04-.238.04-.159 0-.278.08-.397.201A.945.945 0 0 0 0 4.291c0 .24.08.481.277.641.159.16.437.281.635.281 1.585-.16 3.131-.36 4.717-.521l4.4-.361c1.586-.12 3.171-.28 4.797-.401.634-.04 1.268-.12 1.942-.16 2.497-.12 4.955-.281 7.452-.402l4.638-.24 1.903-.12c2.458-.12 4.915-.2 7.373-.321 1.507-.04 2.973-.12 4.48-.16.515 0 .99-.04 1.506-.04 2.656-.081 5.312-.121 7.968-.201l4.44-.12c.515 0 1.07-.04 1.585-.04 2.735-.04 5.47-.04 8.245-.08 1.705 0 3.41-.041 5.114-.041 2.894 0 5.827 0 8.72.04.556 0 1.15.04 1.705.04 1.626.04 3.211.08 4.837.16 1.189.04 2.418.08 3.607.121l2.576.12c2.498.12 5.035.281 7.532.441l1.903.12c.674.04 1.387.08 2.061.161.119 0 .198.04.317.08.278.04.516.04.754-.12.237-.12.396-.36.475-.602.159-.52-.158-1.082-.713-1.243-.476-.12-.952-.16-1.388-.24-.317-.04-.634-.08-.951-.08-.634-.08-1.269-.08-1.863-.16-1.11-.041-2.3-.121-3.449-.201Z"/></g><defs><clipPath id="a"><path fill="#fff" d="M0 0h106v5.213H0z"/></clipPath></defs></svg>