<svg xmlns="http://www.w3.org/2000/svg" width="33" height="33" fill="none"><path fill="#fff" fill-rule="evenodd" d="M13.072 6.503a18.651 18.651 0 0 1-.198-1.561c-.065-.778-.025-1.562-.048-2.34-.01-.33-.05-1.19-.034-1.314C12.937.21 13.807.045 14.062.015c.123-.018 1.387-.159 1.66 1.244.335 1.714.442 3.441.324 5.132.276 1.438.749 2.87 1.373 4.166 2.483 5.157 7.215 5.658 12.342 5.61a1.468 1.468 0 0 1 1.484 1.391 1.47 1.47 0 0 1-1.33 1.544c-2.866.277-7.95 2.575-9.709 4.968-.367.5-.581 1.709-.864 2.893-.395 1.644-.864 3.27-1.39 3.954-.08.106-1.04 1.19-1.326 1.35-.688.377-1.24.159-1.552-.042-.313-.2-.667-.595-.809-1.249-.148-.683-.023-2.086-.046-2.386-.083-1.09-.301-3.23-.746-5.068-.24-.99-.496-1.904-.919-2.357-1.566-1.68-4.07-1.432-6.18-1.155-.242.03-.484.064-.726.094-.858.253-1.77.442-2.733.554-1.455.17-1.695-1.167-1.708-1.255-.027-.195-.128-1.197.97-1.597.119-.041 1.002-.236 1.342-.313.473-.106.952-.188 1.433-.265 4.967-1.544 7.665-5.88 8.12-10.725Zm1.704 5.357c1.875 3.877 4.721 5.751 8.094 6.6-2.107 1.102-4.022 2.48-5.038 3.866-.385.524-.739 1.579-1.058 2.763-.172-1.102-.405-2.274-.714-3.276-.35-1.143-.822-2.092-1.35-2.658-1.016-1.09-2.293-1.697-3.665-1.998 1.643-1.455 2.889-3.27 3.731-5.297Z" clip-rule="evenodd"/></svg>